# xmcd
#
# Track frame offsets:
#	151
#	14674
#	30625
#	43266
#	56592
#	71418
#	88943
#	102720
#	117016
#	129816
#
# Disc length: 1961 seconds
#
# Revision: 1
# Processed by: cddbd v1.5.2PL0 Copyright (c) Steve Scherf et al.
# Submitted via: audiograbber 1.83.01
#
DISCID=8807a70a
DTITLE=Laurie Garman - Laurie Garman
DYEAR=1900
DGENRE=
TTITLE0=Kiss Up Time
TTITLE1=I Won´t Be The One
TTITLE2=Where Were You
TTITLE3=He Dosen´t Know Any Better
TTITLE4=Hold Me
TTITLE5=How Can I Forget
TTITLE6=Gone For Good
TTITLE7=Long Time Coming
TTITLE8=Nobodys Fool
TTITLE9=Once In A Bluemoon
EXTD=
EXTT0=
EXTT1=
EXTT2=
EXTT3=
EXTT4=
EXTT5=
EXTT6=
EXTT7=
EXTT8=
EXTT9=
PLAYORDER=
